# xmcd
#
# Track frame offsets:
#	150
#	17748
#	30036
#	46966
#	66731
#	81649
#	95010
#	111638
#	128589
#	143750
#	161005
#	175067
#
# Disc length: 2550 seconds
#
# Revision: 0
# Processed by: cddbd v1.5.2PL0 Copyright (c) Steve Scherf et al.
# Submitted via: EasyCDDAExtractor 9.1.0.1
#
DISCID=a409f40c
DTITLE=Various Artist - ΑΣΕ ΜΕ ΝΑ ΤΑΞΙΔΕΨΩ
DYEAR=2008
DGENRE=ΛΑΙΚΑ
TTITLE0=ΓΙΑΝΝΑ ΤΕΡΖΗ - ΑΝ ΓΥΡΝΟΥΣΑ ΠΙΣΩ ΤΟ ΧΡΟΝΟ
TTITLE1=ΓΙΑΝΝΑ ΤΕΡΖΗ - ΑΠΙΣΤΕΥΤΟ
TTITLE2=ΓΙΑΝΝΑ ΤΕΡΖΗ - ΜΟΝΟ ΕΣΕΝΑ ΘΕΛΩ
TTITLE3=ΓΙΑΝΝΑ ΤΕΡΖΗ - ΔΕΝ ΦΑΝΤΑΖΕΣΑΙ
TTITLE4=ΓΙΑΝΝΑ ΤΕΡΖΗ - ΣΤΗΝ ΑΓΚΑΛΙΑ ΤΗΣ
TTITLE5=ΓΙΑΝΝΑ ΤΕΡΖΗ - ΕΔΩ ΚΑΙ ΤΩΡΑ
TTITLE6=ΓΙΑΝΝΑ ΤΕΡΖΗ and ΒΑΣΙΛΗΣ ΣΑΛΕΑΣ - ΑΠΛΑ ΥΠΑΡΧΟΥΜΕ
TTITLE7=ΓΙΑΝΝΑ ΤΕΡΖΗ - ΘΑ 'ΘΕΛΑ ΝΑ ΞΕΡΩ
TTITLE8=ΓΙΑΝΝΑ ΤΕΡΖΗ - ΤΡΕΙΣ ΤΟ ΞΗΜΕΡΩΜΑ
TTITLE9=ΓΙΑΝΝΑ ΤΕΡΖΗ - ΔΕΝ ΤΟΛΜΗΣΕΣ
TTITLE10=ΓΙΑΝΝΑ ΤΕΡΖΗ - ΞΕΧΑΣΕ ΜΕ
TTITLE11=ΓΙΑΝΝΑ ΤΕΡΖΗ - ΑΣΕ ΜΕ ΝΑ ΤΑΞΙΔΕΨΩ
EXTD=
EXTT0=
EXTT1=
EXTT2=
EXTT3=
EXTT4=
EXTT5=
EXTT6=
EXTT7=
EXTT8=
EXTT9=
EXTT10=
EXTT11=
PLAYORDER=
